<svg width="23" height="22" viewBox="0 0 23 22" fill="none" xmlns="http://www.w3.org/2000/svg">
<path d="M0.5 5.5V2.2C0.5 1.595 0.715416 1.07708 1.14625 0.64625C1.57708 0.215417 2.095 0 2.7 0H6V2.2H2.7V5.5H0.5ZM6 22H2.7C2.095 22 1.57708 21.7846 1.14625 21.3538C0.715416 20.9229 0.5 20.405 0.5 19.8V16.5H2.7V19.8H6V22ZM17 22V19.8H20.3V16.5H22.5V19.8C22.5 20.405 22.2846 20.9229 21.8538 21.3538C21.4229 21.7846 20.905 22 20.3 22H17ZM20.3 5.5V2.2H17V0H20.3C20.905 0 21.4229 0.215417 21.8538 0.64625C22.2846 1.07708 22.5 1.595 22.5 2.2V5.5H20.3Z" fill="white"/>
<path d="M6.6 14.2V9.3H8V14.2H6.6ZM10.8 14.2V9.3H12.2V14.2H10.8ZM4.5 17V15.6H18.5V17H4.5ZM15 14.2V9.3H16.4V14.2H15ZM4.5 7.9V6.5L11.5 3L18.5 6.5V7.9H4.5ZM7.615 6.5H15.385L11.5 4.575L7.615 6.5Z" fill="white"/>
</svg>
