<svg width="22" height="22" viewBox="0 0 22 22" fill="none" xmlns="http://www.w3.org/2000/svg">
<path d="M16.275 12.1L14.735 10.56L17.1 8.195C16.3117 8.04833 15.0513 8.13083 13.3188 8.4425C11.5863 8.75417 9.63833 9.96417 7.475 12.0725C8.06167 9.9275 9.24417 8.20417 11.0225 6.9025C12.8008 5.60083 14.8083 4.95 17.045 4.95L14.735 2.64L16.275 1.1L21.775 6.6L16.275 12.1ZM9.675 22C6.72333 19.4883 4.51875 17.1554 3.06125 15.0013C1.60375 12.8471 0.875 10.8533 0.875 9.02C0.875 6.52667 1.7275 4.4 3.4325 2.64C5.1375 0.88 7.21833 0 9.675 0C10.3167 0 10.9583 0.06875 11.6 0.20625C12.2417 0.34375 12.8558 0.55 13.4425 0.825L11.7375 2.53C11.4075 2.42 11.0683 2.3375 10.72 2.2825C10.3717 2.2275 10.0233 2.2 9.675 2.2C7.82333 2.2 6.26042 2.86458 4.98625 4.19375C3.71208 5.52292 3.075 7.13167 3.075 9.02C3.075 10.3217 3.61583 11.8067 4.6975 13.475C5.77917 15.1433 7.43833 17.0042 9.675 19.0575C10.775 18.0492 11.7375 17.0867 12.5625 16.17C13.3875 15.2533 14.0658 14.3733 14.5975 13.53L16.1925 15.125C15.4592 16.2067 14.5517 17.3158 13.47 18.4525C12.3883 19.5892 11.1233 20.7717 9.675 22Z" fill="#D9D18C"/>
</svg>
