<svg width="23" height="22" viewBox="0 0 23 22" fill="none" xmlns="http://www.w3.org/2000/svg">
<path d="M13.6476 22C13.2111 22 12.8401 21.8472 12.5345 21.5417C12.229 21.2361 12.0762 20.8651 12.0762 20.4286V13.0952C12.0762 12.6587 12.229 12.2877 12.5345 11.9821C12.8401 11.6766 13.2111 11.5238 13.6476 11.5238H20.981C21.4175 11.5238 21.7885 11.6766 22.094 11.9821C22.3996 12.2877 22.5524 12.6587 22.5524 13.0952V20.4286C22.5524 20.8651 22.3996 21.2361 22.094 21.5417C21.7885 21.8472 21.4175 22 20.981 22H13.6476ZM13.6476 20.4286H20.981V19.5905C20.5444 19.0492 20.0119 18.6171 19.3833 18.294C18.7548 17.971 18.0651 17.8095 17.3143 17.8095C16.5635 17.8095 15.8738 17.971 15.2452 18.294C14.6167 18.6171 14.0841 19.0492 13.6476 19.5905V20.4286ZM17.3143 16.7619C17.7508 16.7619 18.1218 16.6091 18.4274 16.3036C18.7329 15.998 18.8857 15.627 18.8857 15.1905C18.8857 14.754 18.7329 14.3829 18.4274 14.0774C18.1218 13.7718 17.7508 13.619 17.3143 13.619C16.8778 13.619 16.5067 13.7718 16.2012 14.0774C15.8956 14.3829 15.7429 14.754 15.7429 15.1905C15.7429 15.627 15.8956 15.998 16.2012 16.3036C16.5067 16.6091 16.8778 16.7619 17.3143 16.7619ZM11.081 6.80952C10.0683 6.80952 9.20397 7.16746 8.4881 7.88333C7.77222 8.59921 7.41429 9.46349 7.41429 10.4762C7.41429 11.3143 7.65 12.0476 8.12143 12.6762C8.59286 13.3048 9.2127 13.7413 9.98095 13.9857V11.6286C9.84127 11.4889 9.72778 11.3099 9.64048 11.0917C9.55317 10.8734 9.50952 10.6683 9.50952 10.4762C9.50952 10.0397 9.6623 9.66865 9.96786 9.3631C10.2734 9.05754 10.6444 8.90476 11.081 8.90476C11.3254 8.90476 11.5437 8.95278 11.7357 9.04881C11.9278 9.14484 12.0937 9.27143 12.2333 9.42857H14.5905C14.3635 8.66032 13.9313 8.03175 13.294 7.54286C12.6567 7.05397 11.919 6.80952 11.081 6.80952ZM8.14762 20.9524L7.72857 17.6C7.50159 17.5127 7.2877 17.4079 7.08691 17.2857C6.88611 17.1635 6.68968 17.0325 6.49762 16.8929L3.38095 18.2024L0.5 13.2262L3.19762 11.1833C3.18016 11.0611 3.17143 10.9433 3.17143 10.8298V10.1226C3.17143 10.0091 3.18016 9.89127 3.19762 9.76905L0.5 7.72619L3.38095 2.75L6.49762 4.05952C6.68968 3.91984 6.89048 3.78889 7.1 3.66667C7.30952 3.54444 7.51905 3.43968 7.72857 3.35238L8.14762 0H13.9095L14.3286 3.35238C14.5556 3.43968 14.7694 3.54444 14.9702 3.66667C15.171 3.78889 15.3675 3.91984 15.5595 4.05952L18.6762 2.75L21.5571 7.72619L19.331 9.42857H16.6857C16.6683 9.34127 16.6508 9.2496 16.6333 9.15357C16.6159 9.05754 16.5897 8.96587 16.5548 8.87857L18.8071 7.17619L17.7857 5.39524L15.1929 6.49524C14.8087 6.09365 14.3853 5.75754 13.9226 5.48691C13.4599 5.21627 12.9579 5.01111 12.4167 4.87143L12.0762 2.09524H10.0071L9.64048 4.87143C9.09921 5.01111 8.59722 5.21627 8.13452 5.48691C7.67183 5.75754 7.24841 6.08492 6.86429 6.46905L4.27143 5.39524L3.25 7.17619L5.50238 8.85238C5.41508 9.11429 5.35397 9.37619 5.31905 9.6381C5.28413 9.9 5.26667 10.1794 5.26667 10.4762C5.26667 10.7556 5.28413 11.0262 5.31905 11.2881C5.35397 11.55 5.41508 11.8119 5.50238 12.0738L3.25 13.7762L4.27143 15.5571L6.86429 14.4571C7.28333 14.8937 7.75476 15.2603 8.27857 15.5571C8.80238 15.854 9.36984 16.046 9.98095 16.1333V20.9524H8.14762Z" fill="white"/>
</svg>
